<svg id="Capa_1" enable-background="new 0 0 512 512" height="512" viewBox="0 0 512 512" width="512" xmlns="http://www.w3.org/2000/svg"><g><path d="m320.386 185.948h109.199v46.358h-109.199z" fill="#c3aff0"/><path d="m82.414 185.948h62.841v46.358h-62.841z" fill="#c3aff0" transform="matrix(-1 0 0 -1 227.67 418.254)"/><path d="m134.954 173.795v121.314c0 20.259 7.462 39.809 20.962 54.915l11.825 13.233c6.75 7.553 10.481 17.328 10.481 27.458v37.325c0 8.534 6.918 15.453 15.453 15.453h81.384c8.534 0 15.453-6.918 15.453-15.453v-36.307c0-10.739 4.192-21.053 11.683-28.747l47.025-48.296c11.237-11.541 17.525-27.012 17.525-43.12v-54.718c0-17.069-13.837-30.905-30.905-30.905h-38.632c-12.801 0-23.179 10.378-23.179 23.179 0 12.801 10.378 23.179 23.179 23.179h23.179l-31.387-58.305z" fill="#d19a6e"/><path d="m377.046 216.853v54.713c0 16.112-6.284 31.585-17.523 43.123l-47.028 48.295c-7.489 7.695-11.682 18.008-11.682 28.752v36.304c0 8.53-6.923 15.453-15.453 15.453h-30.905c8.53 0 15.453-6.923 15.453-15.453v-36.304c0-10.745 4.193-21.057 11.682-28.752l47.028-48.295c11.239-11.538 17.523-27.011 17.523-43.123v-54.713c0-17.07-13.835-30.905-30.905-30.905h30.905c17.07 0 30.905 13.835 30.905 30.905z" fill="#bc845e"/><path d="m297.207 262.696c-12.801 0-23.179-10.378-23.179-23.179v-65.417c0-12.801 10.378-23.179 23.179-23.179 12.801 0 12.877 10.378 12.877 23.179v65.417c.001 12.802-.075 23.179-12.877 23.179z" fill="#bc845e"/><path d="m320.386 174.101v65.417c0 12.805-10.374 23.179-23.179 23.179-5.944 0-11.353-2.236-15.453-5.913 4.739-4.234 7.726-10.395 7.726-17.266v-65.417c0-6.408-2.596-12.197-6.789-16.39-.299-.299-.618-.597-.938-.876 4.1-3.678 9.509-5.913 15.453-5.913 6.408 0 12.197 2.596 16.39 6.789 4.194 4.192 6.79 9.982 6.79 16.39z" fill="#ad775c"/><path d="m250.849 262.696c-12.801 0-23.179-10.378-23.179-23.179v-65.417c0-12.801 10.378-23.179 23.179-23.179 12.801 0 12.877 10.378 12.877 23.179v65.417c0 12.802-.075 23.179-12.877 23.179z" fill="#bc845e"/><path d="m274.028 174.101v65.417c0 12.805-10.374 23.179-23.179 23.179-5.944 0-11.353-2.236-15.453-5.913 4.739-4.234 7.726-10.395 7.726-17.266v-65.417c0-6.408-2.596-12.197-6.789-16.39-.299-.299-.618-.597-.938-.876 4.1-3.678 9.509-5.913 15.453-5.913 6.408 0 12.197 2.596 16.39 6.789s6.79 9.982 6.79 16.39z" fill="#ad775c"/><path d="m158.133 262.696c-12.801 0-23.179-10.378-23.179-23.179v-65.417c0-12.801 10.378-23.179 23.179-23.179 12.801 0 12.877 10.378 12.877 23.179v65.417c0 12.802-.076 23.179-12.877 23.179z" fill="#bc845e"/><path d="m181.312 174.101v65.417c0 12.805-10.374 23.179-23.179 23.179-5.944 0-11.353-2.236-15.453-5.913 4.739-4.234 7.726-10.395 7.726-17.266v-65.417c0-6.408-2.596-12.197-6.789-16.39-.299-.299-.618-.597-.938-.876 4.1-3.678 9.509-5.913 15.453-5.913 6.408 0 12.197 2.596 16.39 6.789s6.79 9.982 6.79 16.39z" fill="#ad775c"/><path d="m204.491 262.696c-12.801 0-23.179-10.378-23.179-23.179v-65.417c0-12.801 10.378-23.179 23.179-23.179 12.801 0 12.877 10.378 12.877 23.179v65.417c0 12.802-.076 23.179-12.877 23.179z" fill="#bc845e"/><path d="m227.67 174.101v65.417c0 12.805-10.374 23.179-23.179 23.179-5.944 0-11.353-2.236-15.453-5.913 4.739-4.234 7.726-10.395 7.726-17.266v-65.417c0-6.408-2.596-12.197-6.789-16.39-.299-.299-.618-.597-.938-.876 4.1-3.678 9.509-5.913 15.453-5.913 6.408 0 12.197 2.596 16.39 6.789s6.79 9.982 6.79 16.39z" fill="#ad775c"/><path d="m10.302 232.306h30.905v-46.358h-30.905c-5.69 0-10.302 4.612-10.302 10.301v25.755c0 5.69 4.612 10.302 10.302 10.302z" fill="#c3aff0"/><path d="m46.358 349.746h30.905c8.534 0 15.453-6.918 15.453-15.453v-250.333c0-8.534-6.918-15.453-15.453-15.453h-30.905c-8.534 0-15.453 6.918-15.453 15.453v250.334c0 8.534 6.919 15.452 15.453 15.452z" fill="#6f6571"/><path d="m92.716 83.96v250.334c0 8.53-6.923 15.453-15.453 15.453h-30.905c8.53 0 15.453-6.923 15.453-15.453v-250.334c0-8.53-6.923-15.453-15.453-15.453h30.905c8.531 0 15.453 6.923 15.453 15.453z" fill="#5d5360"/><path d="m501.698 232.306h-30.905v-46.358h30.905c5.69 0 10.302 4.612 10.302 10.302v25.755c0 5.689-4.612 10.301-10.302 10.301z" fill="#c3aff0"/><path d="m512 196.249v25.755c0 5.687-4.615 10.302-10.302 10.302h-30.905c5.687 0 10.302-4.615 10.302-10.302v-25.755c0-5.687-4.615-10.302-10.302-10.302h30.905c5.687.001 10.302 4.616 10.302 10.302z" fill="#a592e8"/><path d="m465.642 349.746h-30.905c-8.534 0-15.453-6.918-15.453-15.453v-250.333c0-8.534 6.918-15.453 15.453-15.453h30.905c8.534 0 15.453 6.918 15.453 15.453v250.334c0 8.534-6.919 15.452-15.453 15.452z" fill="#6f6571"/><path d="m481.095 83.96v250.334c0 8.53-6.923 15.453-15.453 15.453h-30.905c8.53 0 15.453-6.923 15.453-15.453v-250.334c0-8.53-6.923-15.453-15.453-15.453h30.905c8.53 0 15.453 6.923 15.453 15.453z" fill="#5d5360"/><path d="m320.386 185.948 12.114 27.302-12.113 19.056h-23.179c-6.408 0-12.197-2.596-16.39-6.789s-6.789-9.982-6.789-16.39c0-12.805 10.374-23.179 23.179-23.179z" fill="#d19a6e"/></g></svg>