<svg id="Layer_1" enable-background="new 0 0 512 512" height="512" viewBox="0 0 512 512" width="512" xmlns="http://www.w3.org/2000/svg"><g><path d="m241 68h-158v-15c0-8.284 6.716-15 15-15h128c8.284 0 15 6.716 15 15z" fill="#e0e0e0"/><path d="m271.005 68h158v-15c0-8.284-6.716-15-15-15h-128c-8.284 0-15 6.716-15 15z" fill="#e0e0e0"/><path d="m206 67.934h100v30h-100z" fill="#546e7a"/><path d="m138.241 208h-52.482c-7.599 0-13.759-6.16-13.759-13.759v-72.481c0-7.6 6.16-13.76 13.759-13.76h52.481c7.599 0 13.759 6.16 13.759 13.759v72.481c.001 7.6-6.159 13.76-13.758 13.76z" fill="#546e7a"/><path d="m138.241 108h-30c7.599 0 13.759 6.16 13.759 13.759v72.481c0 7.599-6.16 13.759-13.759 13.759h30c7.599 0 13.759-6.16 13.759-13.759v-72.481c0-7.599-6.16-13.759-13.759-13.759z" fill="#455a64"/><path d="m373.764 208h52.481c7.599 0 13.759-6.16 13.759-13.759v-72.481c0-7.599-6.16-13.759-13.759-13.759h-52.481c-7.599 0-13.759 6.16-13.759 13.759v72.481c0 7.599 6.16 13.759 13.759 13.759z" fill="#546e7a"/><path d="m426.245 108h-30c7.599 0 13.759 6.16 13.759 13.759v72.481c0 7.599-6.16 13.759-13.759 13.759h30c7.599 0 13.759-6.16 13.759-13.759v-72.481c0-7.599-6.16-13.759-13.759-13.759z" fill="#455a64"/><path d="m313 326h-114c-9.389 0-17-7.611-17-17 0-9.389 7.611-17 17-17h114c9.389 0 17 7.611 17 17 0 9.389-7.611 17-17 17z" fill="#546e7a"/><path d="m313 292h-30c9.389 0 17 7.611 17 17 0 9.389-7.611 17-17 17h30c9.389 0 17-7.611 17-17 0-9.389-7.611-17-17-17z" fill="#455a64"/><g fill="#e0e0e0"><path d="m202 326h30v100h-30z"/><path d="m280 326h30v100h-30z"/></g><path d="m493.846 474h-475.692c-5.884 0-10.654-4.77-10.654-10.654 0-20.626 16.72-37.346 37.346-37.346h422.308c20.626 0 37.346 16.72 37.346 37.346 0 5.884-4.77 10.654-10.654 10.654z" fill="#f74f68"/><path d="m467.154 426h-30c20.626 0 37.346 16.72 37.346 37.346 0 5.884-4.77 10.654-10.654 10.654h30c5.884 0 10.654-4.77 10.654-10.654 0-20.626-16.72-37.346-37.346-37.346z" fill="#e83a53"/><path d="m291.281 254h-70.562c-5.368 0-9.719-4.351-9.719-9.719v-100.562c0-5.368 4.351-9.719 9.719-9.719h70.562c5.368 0 9.719 4.351 9.719 9.719v100.562c0 5.368-4.351 9.719-9.719 9.719z" fill="#546e7a"/><path d="m291.281 134h-30c5.368 0 9.719 4.351 9.719 9.719v100.562c0 5.368-4.351 9.719-9.719 9.719h30c5.368 0 9.719-4.351 9.719-9.719v-100.562c0-5.368-4.351-9.719-9.719-9.719z" fill="#455a64"/><path d="m241 254h30v38h-30z" fill="#e0e0e0"/><g fill="#bdbdbd"><path d="m271 134h-30v-75c0-8.284 6.716-15 15-15 8.284 0 15 6.716 15 15z"/><path d="m97 68h30v40h-30z"/><path d="m385.005 68h30v40h-30z" transform="matrix(-1 0 0 -1 800.009 176)"/></g><path d="m467.154 418.5h-19.383c-4.143 0-7.5 3.358-7.5 7.5s3.357 7.5 7.5 7.5h19.383c16.457 0 29.846 13.389 29.846 29.846 0 1.739-1.415 3.154-3.153 3.154h-475.694c-1.738 0-3.153-1.415-3.153-3.154 0-16.457 13.389-29.846 29.846-29.846h371.112c4.143 0 7.5-3.358 7.5-7.5s-3.357-7.5-7.5-7.5h-98.458v-85.421c11.367-2.12 20-12.107 20-24.079 0-13.509-10.99-24.5-24.5-24.5h-34.5v-23h12.781c9.494 0 17.219-7.725 17.219-17.219v-100.562c0-9.495-7.725-17.219-17.219-17.219h-12.781v-21.07h27.5c4.143 0 7.5-3.358 7.5-7.5v-22.43h64.005v25h-3.741c-11.722 0-21.259 9.537-21.259 21.259v72.481c0 11.722 9.537 21.259 21.259 21.259h52.481c11.723 0 21.26-9.537 21.26-21.259v-72.481c0-11.722-9.537-21.259-21.26-21.259h-3.74v-25h6.5c4.143 0 7.5-3.358 7.5-7.5v-15c0-12.407-10.094-22.5-22.5-22.5h-29.303c-4.143 0-7.5 3.358-7.5 7.5s3.357 7.5 7.5 7.5h29.303c4.136 0 7.5 3.364 7.5 7.5v7.5h-114.534c-.318-.041-.641-.07-.971-.07h-27.495v-7.43c0-4.136 3.364-7.5 7.5-7.5h66.046c4.143 0 7.5-3.358 7.5-7.5s-3.357-7.5-7.5-7.5h-66.046c-7.494 0-14.139 3.686-18.23 9.336-3.428-2.114-7.46-3.336-11.774-3.336-4.313 0-8.344 1.222-11.771 3.334-4.093-5.649-10.737-9.334-18.23-9.334h-128c-12.406 0-22.5 10.093-22.5 22.5v15c0 4.142 3.357 7.5 7.5 7.5h6.5v25h-3.74c-11.723 0-21.26 9.537-21.26 21.259v72.481c0 11.722 9.537 21.259 21.26 21.259h52.48c11.723 0 21.26-9.537 21.26-21.259v-72.481c0-11.722-9.537-21.259-21.26-21.259h-3.74v-25h64v22.43c0 4.142 3.357 7.5 7.5 7.5h27.5v21.07h-12.781c-9.494 0-17.219 7.725-17.219 17.219v100.562c0 9.495 7.725 17.219 17.219 17.219h12.781v23h-34.5c-13.51 0-24.5 10.991-24.5 24.5 0 11.972 8.633 21.959 20 24.079v18.417c0 4.142 3.357 7.5 7.5 7.5s7.5-3.358 7.5-7.5v-17.996h15v85h-15v-34.446c0-4.142-3.357-7.5-7.5-7.5s-7.5 3.358-7.5 7.5v34.446h-149.654c-24.729 0-44.846 20.118-44.846 44.846 0 10.01 8.144 18.154 18.153 18.154h475.693c10.01 0 18.153-8.144 18.153-18.154.001-24.728-20.116-44.846-44.845-44.846zm-179.654 0v-85h15v85zm11-328.07h-20v-14.93h20zm134.005 31.329v72.481c0 3.451-2.809 6.259-6.26 6.259h-52.481c-3.451 0-6.259-2.808-6.259-6.259v-72.481c0-3.451 2.808-6.259 6.259-6.259h52.481c3.451 0 6.26 2.808 6.26 6.259zm-25-46.259v25h-15v-25zm-317.005-22.5c0-4.136 3.364-7.5 7.5-7.5h128c4.136 0 7.5 3.364 7.5 7.5v7.43h-27.5c-.33 0-.652.029-.971.07h-114.529zm54 68.759v72.481c0 3.451-2.809 6.259-6.26 6.259h-52.48c-3.451 0-6.26-2.808-6.26-6.259v-72.481c0-3.451 2.809-6.259 6.26-6.259h52.48c3.451 0 6.26 2.808 6.26 6.259zm-25-21.259h-15v-25h15zm94-10.07v-14.93h20v14.93zm35-31.43c0-4.136 3.364-7.5 7.5-7.5s7.5 3.364 7.5 7.5v67.5h-15zm-30 185.281v-100.562c0-1.224.995-2.219 2.219-2.219h70.563c1.224 0 2.219.996 2.219 2.219v100.562c0 1.224-.995 2.219-2.219 2.219h-70.563c-1.224 0-2.219-.996-2.219-2.219zm30 17.219h15v23h-15zm-49.5 57c-5.238 0-9.5-4.262-9.5-9.5s4.262-9.5 9.5-9.5h114c5.238 0 9.5 4.262 9.5 9.5s-4.262 9.5-9.5 9.5zm40.5 15h33v85h-33z"/></g></svg>