<?xml version="1.0" encoding="iso-8859-1"?>
<!-- Generator: Adobe Illustrator 19.0.0, SVG Export Plug-In . SVG Version: 6.00 Build 0)  -->
<svg version="1.1" id="Capa_1" xmlns="http://www.w3.org/2000/svg" xmlns:xlink="http://www.w3.org/1999/xlink" x="0px" y="0px"
	 viewBox="0 0 479.813 479.813" style="enable-background:new 0 0 479.813 479.813;" xml:space="preserve">
<path style="fill:#4D8AD1;" d="M201.749,117.413l-33.6-13.6l-10.4,26.4c-3.2,0-6.4-0.8-9.6-0.8s-6.4,0-9.6,0.8l-11.2-26.4
	l-59.2,23.2l10.4,26.4c-7.2,5.6-13.6,12-18.4,18.4l-26.4-10.4l-24,60l26.4,10.4c0,3.2-0.8,6.4-0.8,9.6s0,6.4,0.8,9.6l-26.4,11.2
	l23.2,59.2l26.4-10.4c5.6,7.2,12,13.6,18.4,18.4l-10.4,26.4l59.2,23.2l10.4-26.4c3.2,0,6.4,0.8,9.6,0.8s6.4,0,9.6-0.8l10.4,26.4
	l59.2-23.2l-10.4-26.4"/>
<path style="fill:#919191;" d="M464.149,86.213L464.149,86.213c-8.8-24.8-27.2-44.8-51.2-56l-51.2-22.4l32,96l-32,40l-48-8l-40-96
	l-11.2,12c-37.6,42.4-52,100.8-36.8,156l-56,24l4,3.2c40,32,69.6,75.2,84,124c5.6,17.6,8,36,8,54.4v58.4h104v-80l4-35.2
	c8-65.6,34.4-127.2,76.8-178.4C469.749,151.813,475.349,117.413,464.149,86.213z M336.949,303.013l-26.4,12l-28.8,12.8l-24-72
	l16-7.2l56-24.8l24,72L336.949,303.013z"/>
<polygon style="fill:#555555;" points="329.749,223.813 273.749,248.613 257.749,255.813 281.749,327.813 311.349,315.013 
	336.949,303.013 353.749,295.813 "/>
<path d="M64.949,363.813l59.2,23.2c0.8,0,1.6,0.8,3.2,0.8c0.8,0,2.4,0,3.2-0.8c1.6-0.8,3.2-2.4,4-4l8.8-21.6c3.2,0,5.6,0,8.8,0
	l8.8,21.6c1.6,4,6.4,6.4,10.4,4.8l0,0l59.2-23.2c4-1.6,6.4-6.4,4.8-10.4l0,0l-10.4-26.4l-15.2,4.8l8,19.2l-44.8,17.6l-8-19.2
	c-1.6-3.2-4.8-5.6-8-4.8c-6.4,0.8-12,0.8-18.4,0c-3.2,0-7.2,1.6-8,4.8l-8,19.2l-44.8-17.6l8-19.2c1.6-3.2,0-7.2-2.4-9.6
	c-6.4-4.8-12-11.2-17.6-17.6c-1.6-1.6-5.6-3.2-8.8-1.6l-19.2,8l-17.6-44.8l19.2-8c3.2-1.6,5.6-4.8,4.8-8c0-3.2-0.8-5.6-0.8-8.8
	s0-6.4,0.8-8.8c0-3.2-1.6-7.2-4.8-8l-19.2-8l17.6-44.8l19.2,8c3.2,1.6,7.2,0,9.6-2.4c4.8-6.4,11.2-12,17.6-17.6
	c2.4-2.4,4-5.6,2.4-9.6l-8-19.2l44.8-17.6l8,19.2c1.6,3.2,4.8,5.6,8,4.8c6.4-0.8,12-0.8,18.4,0c3.2,0,7.2-1.6,8-4.8l8-19.2
	l26.4,10.4l5.6-15.2l-33.6-13.6c-4-1.6-8.8,0-10.4,4.8l0,0l-8.8,21.6c-3.2,0-5.6,0-8.8,0l-8.8-21.6c-1.6-4-6.4-6.4-10.4-4.8l0,0
	l-60,24c-4,1.6-6.4,6.4-4.8,10.4l0,0l8.8,21.6c-4,3.2-8,7.2-11.2,11.2l-21.6-8.8c-4-1.6-8.8,0-10.4,4.8l0,0l-23.2,59.2
	c-1.6,4,0,8.8,4.8,10.4l0,0l21.6,8.8c0,1.6,0,3.2,0,4.8s0,3.2,0,4.8l-21.6,8.8c-4,1.6-6.4,6.4-4.8,10.4l0,0l23.2,58.4
	c1.6,4,6.4,6.4,10.4,4.8l0,0l21.6-8.8c3.2,4,7.2,8,11.2,11.2l-8.8,21.6C59.349,358.213,60.949,362.213,64.949,363.813z"/>
<path d="M145.749,215.813c2.4,0,4,0,6.4,0.8l4-15.2c-4-0.8-7.2-1.6-10.4-1.6c-22.4,0-40,17.6-40,40s17.6,40,40,40
	c11.2,0,22.4-4.8,30.4-13.6l-12-10.4c-8.8,9.6-24,11.2-33.6,2.4c-9.6-8.8-11.2-24-2.4-33.6
	C132.149,219.013,138.549,215.813,145.749,215.813z"/>
<path d="M265.749,479.813h104c4.8,0,8-3.2,8-8v-79.2l4-35.2c7.2-64,33.6-124.8,75.2-174.4c35.2-47.2,24.8-113.6-22.4-148
	c-5.6-4-12-8-19.2-11.2l-50.4-23.2c-4-1.6-8.8,0-10.4,4c-0.8,1.6-0.8,4,0,5.6l30.4,92l-26.4,32.8l-39.2-6.4l-38.4-92
	c-1.6-4-6.4-6.4-10.4-4c-0.8,0.8-2.4,0.8-3.2,2.4l-11.2,12c-38.4,42.4-53.6,100.8-40.8,156.8l-49.6,21.6c-4,1.6-5.6,6.4-4,10.4
	c0.8,1.6,1.6,2.4,2.4,3.2l4,3.2c38.4,31.2,67.2,72.8,81.6,120c4.8,16.8,7.2,34.4,7.2,52v57.6
	C257.749,476.613,260.949,479.813,265.749,479.813z M184.949,234.213l44-19.2c4-1.6,5.6-5.6,4.8-9.6c-14.4-52-0.8-108,35.2-148
	l2.4-2.4l35.2,84c0.8,2.4,3.2,4,6.4,4.8l24,4l-89.6,44.8l7.2,14.4l112-56l0,0c0.8-0.8,1.6-1.6,2.4-2.4l32-40
	c1.6-2.4,2.4-4.8,1.6-7.2l-26.4-78.4l33.6,15.2c45.6,20.8,65.6,73.6,44.8,119.2c-2.4,5.6-5.6,11.2-8.8,16
	c-43.2,52-70.4,115.2-78.4,182.4l-5.6,35.2v0.8v72h-16v-88h-16v88h-24v-88h-16v88h-16v-50.4c0-19.2-2.4-38.4-8-56.8
	C251.349,309.413,223.349,266.213,184.949,234.213z"/>
<path d="M278.549,335.013c2.4,0.8,4.8,0.8,6.4,0l72-32c4-1.6,5.6-5.6,4-9.6l-24-72c-1.6-4-5.6-6.4-10.4-4.8h-0.8l-72,32
	c-4,1.6-5.6,5.6-4,9.6l24,72C274.549,332.613,276.149,334.213,278.549,335.013z M314.549,304.613l-28.8-52l8-4l32,51.2
	L314.549,304.613z M344.149,291.813l-3.2,1.6l-32-51.2l16-7.2L344.149,291.813z M270.549,259.013l28.8,52l-12.8,5.6l-19.2-56.8
	L270.549,259.013z"/>
<rect x="352.137" y="215.767" transform="matrix(-0.9284 0.3715 -0.3715 -0.9284 803.8552 292.6717)" width="43.199" height="16"/>
<g>
</g>
<g>
</g>
<g>
</g>
<g>
</g>
<g>
</g>
<g>
</g>
<g>
</g>
<g>
</g>
<g>
</g>
<g>
</g>
<g>
</g>
<g>
</g>
<g>
</g>
<g>
</g>
<g>
</g>
</svg>
